<?xml version="1.0" encoding="UTF-8"?><svg id="_レイヤー_2" xmlns="http://www.w3.org/2000/svg" viewBox="0 0 151.5 151.5"><defs><style>.cls-1{fill:none;}.cls-2{fill:#0068b7;}</style></defs><g id="Theme"><path class="cls-2" d="M19.48,90.34c-1.58.41-3.17-.59-3.5-2.19-.15-.7-.28-1.41-.4-2.11-3.49-20.51,3.77-41.5,19-55.49,1.19-1.09,3.06-.95,4.1.29l10.98,13.19c.95,1.14.88,2.83-.19,3.85-9.19,8.78-13.53,21.7-11.38,34.33v.03c.31,1.78-.81,3.5-2.56,3.96l-16.05,4.14Z"/><path class="cls-2" d="M74.52,137.09c-9.47-.24-18.76-2.66-27.19-7.13-9.41-4.99-17.31-12.29-23.01-21.24-.87-1.37-.4-3.19,1-3.99l14.9-8.51c1.31-.75,2.96-.33,3.8.93,3.54,5.3,8.33,9.64,13.99,12.64,5.66,3,11.94,4.53,18.31,4.48,1.51-.01,2.79,1.12,2.91,2.63l1.32,17.12c.12,1.61-1.11,3.02-2.73,3.07-1.11.03-2.21.03-3.31,0Z"/><path class="cls-2" d="M95.75,130.77l-5.78-16.16c-.51-1.42.19-2.98,1.58-3.58,5.83-2.56,10.94-6.52,14.88-11.57,3.94-5.05,6.54-10.97,7.61-17.25.25-1.49,1.59-2.55,3.09-2.4l17.08,1.68c1.61.16,2.78,1.63,2.54,3.23-1.55,10.49-5.78,20.39-12.33,28.78-6.55,8.39-15.12,14.9-24.92,18.95-1.5.62-3.21-.16-3.75-1.68Z"/><path class="cls-2" d="M116.75,68.83c-1.46.25-2.89-.66-3.23-2.1-2.17-8.99-7.5-16.85-15.22-22.32-8.44-5.99-18.63-8.35-28.69-6.63-2.4.41-4.75,1.04-7.03,1.89-1.42.53-3-.09-3.62-1.47l-7.12-15.62c-.67-1.47.02-3.22,1.52-3.82,4-1.59,8.17-2.76,12.41-3.49,16.07-2.74,32.31,1,45.73,10.52,12.6,8.94,21.21,21.91,24.48,36.76.35,1.58-.71,3.13-2.31,3.4l-16.92,2.88Z"/><rect class="cls-1" width="151.5" height="151.5"/></g></svg>